<svg id="aa0ddfd6-bedc-4010-9f75-abe51fef6f7a" data-name="Capa 1" xmlns="http://www.w3.org/2000/svg" viewBox="0 0 1639.52 194.71"><title>navbar-bg2</title><path d="M822,1V194.57H742.1c-45.22,0-87.54.7-129.53-19.13-8.55-4-16.82-8.67-25.07-13.29C549,140.57,510.3,119.39,470.57,100,286.36,10.09,105.24-1.2,2,0Z" transform="translate(-2 0.13)" style="fill:#1fff8e"/><path d="M821.52,1V194.53h79.9c45.22,0,87.53.69,129.52-19.14,8.56-4,16.82-8.67,25.08-13.29,38.53-21.58,77.19-42.75,116.93-62.15C1357.15,10,1538.27-1.25,1641.52,0Z" transform="translate(-2 0.13)" style="fill:#1fff8e"/></svg>