<svg xmlns="http://www.w3.org/2000/svg" style="display: none;">

    <symbol id="cross" viewBox="0 0 24 24" fill="current-color" xmlns="http://www.w3.org/2000/svg"><g id="SVGRepo_bgCarrier" stroke-width="0"></g><g id="SVGRepo_tracerCarrier" stroke-linecap="round" stroke-linejoin="round"></g><g id="SVGRepo_iconCarrier"> <path fill-rule="evenodd" clip-rule="evenodd" d="M5.29289 5.29289C5.68342 4.90237 6.31658 4.90237 6.70711 5.29289L12 10.5858L17.2929 5.29289C17.6834 4.90237 18.3166 4.90237 18.7071 5.29289C19.0976 5.68342 19.0976 6.31658 18.7071 6.70711L13.4142 12L18.7071 17.2929C19.0976 17.6834 19.0976 18.3166 18.7071 18.7071C18.3166 19.0976 17.6834 19.0976 17.2929 18.7071L12 13.4142L6.70711 18.7071C6.31658 19.0976 5.68342 19.0976 5.29289 18.7071C4.90237 18.3166 4.90237 17.6834 5.29289 17.2929L10.5858 12L5.29289 6.70711C4.90237 6.31658 4.90237 5.68342 5.29289 5.29289Z" fill="#ffffff"></path> </g></symbol>


    <symbol id="inicio" viewBox="0 0 16 16" fill="current-color" xmlns="http://www.w3.org/2000/svg">
        <g id="SVGRepo_bgCarrier" stroke-width="0"></g><g id="SVGRepo_tracerCarrier" stroke-linecap="round" stroke-linejoin="round"></g><g id="SVGRepo_iconCarrier"> <path fill-rule="evenodd" clip-rule="evenodd" d="M8 0L0 6V8H1V15H4V10H7V15H15V8H16V6L14 4.5V1H11V2.25L8 0ZM9 10H12V13H9V10Z" fill="current-color"></path> </g>
    </symbol>
    
    <symbol id="usuario" viewBox="0 0 24 24" fill="current-color" xmlns="http://www.w3.org/2000/svg"><g id="SVGRepo_bgCarrier" stroke-width="0"></g><g id="SVGRepo_tracerCarrier" stroke-linecap="round" stroke-linejoin="round"></g><g id="SVGRepo_iconCarrier"> <circle cx="12" cy="6" r="4" fill="current-color"></circle> <path opacity="0.5" d="M20 17.5C20 19.9853 20 22 12 22C4 22 4 19.9853 4 17.5C4 15.0147 7.58172 13 12 13C16.4183 13 20 15.0147 20 17.5Z" fill="current-color"></path> </g></symbol>

    <symbol id="soporte" viewBox="0 0 18 18" xmlns="http://www.w3.org/2000/svg" fill="current-color">
        <g id="SVGRepo_bgCarrier" stroke-width="0"></g><g id="SVGRepo_tracerCarrier" stroke-linecap="round" stroke-linejoin="round"></g><g id="SVGRepo_iconCarrier"> <path d="M16 7.184C16 3.14 12.86 0 9 0S2 3.14 2 7c-1.163.597-2 1.696-2 3v2a3 3 0 0 0 3 3h1a1 1 0 0 0 1-1V8a1 1 0 0 0-1-1 5 5 0 0 1 10 0 1 1 0 0 0-1 1v6a1 1 0 0 0 1 1v1h-2.592c-.206-.581-.756-1-1.408-1H8a1.5 1.5 0 0 0 0 3h6a2 2 0 0 0 2-2v-1.183A2.992 2.992 0 0 0 18 12v-2a2.99 2.99 0 0 0-2-2.816" fill="current-color" fill-rule="evenodd"></path> </g></symbol>

    <symbol viewBox="0 0 24 24" id="dietas" xmlns="http://www.w3.org/2000/svg" fill="current-color"><g id="SVGRepo_bgCarrier" stroke-width="0"></g><g id="SVGRepo_tracerCarrier" stroke-linecap="round" stroke-linejoin="round"></g><g id="SVGRepo_iconCarrier"><defs >
  <style>
    .cls-1{stroke: currentColor; stroke-miterlimit:10; stroke-width:1.91px;}
  </style>
</defs><polyline class="cls-1" style="fill:none; stroke: currentColor; stroke-miterlimit:10; stroke-width:1.91px;" points="11.04 20.59 1.5 20.59 1.5 1.5 16.77 1.5 16.77 9.14"></polyline><line class="cls-1" style="fill:none; stroke:currentColor; stroke-miterlimit:10; stroke-width:1.91px;" x1="4.36" y1="5.32" x2="6.27" y2="5.32"></line><line class="cls-1" style="fill:none; stroke:currentColor; stroke-miterlimit:10; stroke-width:1.91px;" x1="8.18" y1="5.32" x2="13.91" y2="5.32"></line><line class="cls-1" style="fill:none; stroke:currentColor; stroke-miterlimit:10; stroke-width:1.91px;" x1="4.36" y1="9.14" x2="6.27" y2="9.14"></line><line class="cls-1" style="fill:none; stroke:currentColor; stroke-miterlimit:10; stroke-width:1.91px;" x1="8.18" y1="9.14" x2="13.91" y2="9.14"></line><line class="cls-1" style="fill:none; stroke:currentColor; stroke-miterlimit:10; stroke-width:1.91px;" x1="4.36" y1="12.95" x2="6.27" y2="12.95"></line><line class="cls-1" style="fill:none; stroke:currentColor; stroke-miterlimit:10; stroke-width:1.91px;" x1="8.18" y1="12.95" x2="13.91" y2="12.95"></line><ellipse class="cls-1" style="fill:none; stroke:currentColor; stroke-miterlimit:10; stroke-width:1.91px;" cx="17.73" cy="18.68" rx="4.77" ry="3.82"></ellipse><path class="cls-1" style="fill:none; stroke:currentColor; stroke-miterlimit:10; stroke-width:1.91px;" d="M20.11,11h1.43a0,0,0,0,1,0,0v1.43a2.39,2.39,0,0,1-2.39,2.39H17.73a0,0,0,0,1,0,0V13.43A2.39,2.39,0,0,1,20.11,11Z"></path><path class="cls-1" style="fill:none; stroke:currentColor; stroke-miterlimit:10; stroke-width:1.91px;" d="M14.86,11.05h0a2.86,2.86,0,0,1,2.87,2.86v.95"></path></g></symbol>


    <symbol id="rutinas" fill="current-color" version="1.1" xmlns="http://www.w3.org/2000/svg" xmlns:xlink="http://www.w3.org/1999/xlink" viewBox="0 0 45.174 45.174" xml:space="preserve"><g id="SVGRepo_bgCarrier" stroke-width="0"></g><g id="SVGRepo_tracerCarrier" stroke-linecap="round" stroke-linejoin="round"></g><g id="SVGRepo_iconCarrier"> <g> <path d="M41.573,15.879v-1.675c0-1.922-1.558-3.495-3.479-3.495h-2.761c-1.921,0-3.479,1.573-3.479,3.495v4.693H13.319v-4.693 c0-1.922-1.558-3.495-3.479-3.495H7.079c-1.921,0-3.479,1.573-3.479,3.495v1.675c-1.979,0-3.6,1.617-3.6,3.613v6.172 c0,1.996,1.71,3.613,3.6,3.613v1.674c0,1.922,1.558,3.513,3.479,3.513H9.84c1.921,0,3.479-1.591,3.479-3.513v-4.676h18.536v4.676 c0,1.922,1.558,3.513,3.479,3.513h2.762c1.92,0,3.479-1.591,3.479-3.513v-1.674c1.979,0,3.6-1.619,3.6-3.613v-6.172 C45.172,17.496,43.462,15.879,41.573,15.879z"></path> </g> </g></symbol>
    
    <symbol id="progreso" fill="current-color" xmlns="http://www.w3.org/2000/svg" viewBox="0 0 612 612" xml:space="preserve"><g stroke-width="0"/><g stroke-linecap="round" stroke-linejoin="round"/><path d="M144.236 70.83h104.389v474.233H144.236zm152.259 293.597h104.389v180.636H296.495zm148.96-150.06h104.389v330.695H445.455z"/><path d="M38.25 500.53h27.32c9.051 0 16.395-7.34 16.395-16.396 0-9.051-7.339-16.395-16.395-16.395H38.25v-73.22h27.32c9.051 0 16.395-7.34 16.395-16.396 0-9.051-7.339-16.395-16.395-16.395H38.25v-73.215h27.32c9.051 0 16.395-7.339 16.395-16.395 0-9.051-7.339-16.395-16.395-16.395H38.25v-73.22h27.32c9.051 0 16.395-7.339 16.395-16.395s-7.339-16.395-16.395-16.395H38.25V76.5h27.32c9.051 0 16.395-7.339 16.395-16.395S74.626 43.71 65.57 43.71H38.25V0H0v612h612v-38.25H38.25z"/></symbol>

    <symbol id="link" viewBox="0 0 24 24" fill="none" xmlns="http://www.w3.org/2000/svg"><g id="SVGRepo_bgCarrier" stroke-width="0"></g><g id="SVGRepo_tracerCarrier" stroke-linecap="round" stroke-linejoin="round"></g><g id="SVGRepo_iconCarrier"> <path d="M15.7285 3.88396C17.1629 2.44407 19.2609 2.41383 20.4224 3.57981C21.586 4.74798 21.5547 6.85922 20.1194 8.30009L17.6956 10.7333C17.4033 11.0268 17.4042 11.5017 17.6976 11.794C17.9911 12.0863 18.466 12.0854 18.7583 11.7919L21.1821 9.35869C23.0934 7.43998 23.3334 4.37665 21.4851 2.5212C19.6346 0.663551 16.5781 0.905664 14.6658 2.82536L9.81817 7.69182C7.90688 9.61053 7.66692 12.6739 9.51519 14.5293C9.80751 14.8228 10.2824 14.8237 10.5758 14.5314C10.8693 14.2391 10.8702 13.7642 10.5779 13.4707C9.41425 12.3026 9.44559 10.1913 10.8809 8.75042L15.7285 3.88396Z" fill="#4b4b4b"></path> <path d="M14.4851 9.47074C14.1928 9.17728 13.7179 9.17636 13.4244 9.46868C13.131 9.76101 13.1301 10.2359 13.4224 10.5293C14.586 11.6975 14.5547 13.8087 13.1194 15.2496L8.27178 20.1161C6.83745 21.556 4.73937 21.5863 3.57791 20.4203C2.41424 19.2521 2.44559 17.1408 3.88089 15.6999L6.30473 13.2667C6.59706 12.9732 6.59614 12.4984 6.30268 12.206C6.00922 11.9137 5.53434 11.9146 5.24202 12.2081L2.81818 14.6413C0.906876 16.5601 0.666916 19.6234 2.51519 21.4789C4.36567 23.3365 7.42221 23.0944 9.33449 21.1747L14.1821 16.3082C16.0934 14.3895 16.3334 11.3262 14.4851 9.47074Z" fill="#4b4b4b"></path> </g></symbol>

    <symbol id="modify" fill="current-color" viewBox="0 0 16 16" xmlns="http://www.w3.org/2000/svg"><g id="SVGRepo_bgCarrier" stroke-width="0"></g><g id="SVGRepo_tracerCarrier" stroke-linecap="round" stroke-linejoin="round"></g><g id="SVGRepo_iconCarrier"> <path d="M13 0L16 3L9 10H6V7L13 0Z" fill="#4b4b4b"></path> <path d="M1 1V15H15V9H13V13H3V3H7V1H1Z" fill="#4b4b4b"></path> </g></symbol>
    <symbol id="delete" fill="current-color" xmlns="http://www.w3.org/2000/svg" viewBox="0 0 512 512" xml:space="preserve"><g stroke-width="0"/><g stroke-linecap="round" stroke-linejoin="round"/><path d="M439.114 69.747s2.977 2.1-43.339-11.966c-41.52-12.604-80.795-15.309-80.795-15.309l-2.722-19.297C310.387 9.857 299.484 0 286.642 0H225.34c-12.825 0-23.729 9.857-25.616 23.175l-2.722 19.297s-39.258 2.705-80.778 15.309C69.891 71.848 72.868 69.747 72.868 69.747c-10.324 2.849-17.536 12.655-17.536 23.864v16.695h401.337V93.611c0-11.209-7.213-21.015-17.555-23.864M88.593 464.731C90.957 491.486 113.367 512 140.234 512h231.524c26.857 0 49.276-20.514 51.64-47.269l25.642-327.21H62.952zm253.423-254.827c.51-8.402 7.731-14.807 16.134-14.296 8.402.51 14.798 7.731 14.296 16.134l-14.492 239.493c-.51 8.402-7.731 14.798-16.133 14.288-8.403-.51-14.806-7.722-14.296-16.125zm-101.265.919c0-8.42 6.821-15.241 15.24-15.241s15.24 6.821 15.24 15.241v239.492c0 8.42-6.821 15.24-15.24 15.24s-15.24-6.821-15.24-15.24zm-86.918-15.215c8.403-.51 15.624 5.894 16.134 14.296l14.509 239.492c.51 8.403-5.894 15.615-14.296 16.125-8.403.51-15.624-5.886-16.134-14.288L139.537 211.74c-.511-8.401 5.893-15.622 14.296-16.132" style="fill:#4b4b4b"/></symbol>
</svg>
