<svg xmlns="http://www.w3.org/2000/svg" style="display: none;">

    <symbol id="cross" viewBox="0 0 24 24" fill="current-color" xmlns="http://www.w3.org/2000/svg"><g id="SVGRepo_bgCarrier" stroke-width="0"></g><g id="SVGRepo_tracerCarrier" stroke-linecap="round" stroke-linejoin="round"></g><g id="SVGRepo_iconCarrier"> <path fill-rule="evenodd" clip-rule="evenodd" d="M5.29289 5.29289C5.68342 4.90237 6.31658 4.90237 6.70711 5.29289L12 10.5858L17.2929 5.29289C17.6834 4.90237 18.3166 4.90237 18.7071 5.29289C19.0976 5.68342 19.0976 6.31658 18.7071 6.70711L13.4142 12L18.7071 17.2929C19.0976 17.6834 19.0976 18.3166 18.7071 18.7071C18.3166 19.0976 17.6834 19.0976 17.2929 18.7071L12 13.4142L6.70711 18.7071C6.31658 19.0976 5.68342 19.0976 5.29289 18.7071C4.90237 18.3166 4.90237 17.6834 5.29289 17.2929L10.5858 12L5.29289 6.70711C4.90237 6.31658 4.90237 5.68342 5.29289 5.29289Z" fill="#ffffff"></path> </g></symbol>


    <symbol id="inicio" viewBox="0 0 16 16" fill="current-color" xmlns="http://www.w3.org/2000/svg">
        <g id="SVGRepo_bgCarrier" stroke-width="0"></g><g id="SVGRepo_tracerCarrier" stroke-linecap="round" stroke-linejoin="round"></g><g id="SVGRepo_iconCarrier"> <path fill-rule="evenodd" clip-rule="evenodd" d="M8 0L0 6V8H1V15H4V10H7V15H15V8H16V6L14 4.5V1H11V2.25L8 0ZM9 10H12V13H9V10Z" fill="current-color"></path> </g>
    </symbol>
    
    <symbol id="usuario" viewBox="0 0 24 24" fill="current-color" xmlns="http://www.w3.org/2000/svg"><g id="SVGRepo_bgCarrier" stroke-width="0"></g><g id="SVGRepo_tracerCarrier" stroke-linecap="round" stroke-linejoin="round"></g><g id="SVGRepo_iconCarrier"> <circle cx="12" cy="6" r="4" fill="current-color"></circle> <path opacity="0.5" d="M20 17.5C20 19.9853 20 22 12 22C4 22 4 19.9853 4 17.5C4 15.0147 7.58172 13 12 13C16.4183 13 20 15.0147 20 17.5Z" fill="current-color"></path> </g></symbol>

    <symbol id="soporte" viewBox="0 0 18 18" xmlns="http://www.w3.org/2000/svg" fill="current-color">
        <g id="SVGRepo_bgCarrier" stroke-width="0"></g><g id="SVGRepo_tracerCarrier" stroke-linecap="round" stroke-linejoin="round"></g><g id="SVGRepo_iconCarrier"> <path d="M16 7.184C16 3.14 12.86 0 9 0S2 3.14 2 7c-1.163.597-2 1.696-2 3v2a3 3 0 0 0 3 3h1a1 1 0 0 0 1-1V8a1 1 0 0 0-1-1 5 5 0 0 1 10 0 1 1 0 0 0-1 1v6a1 1 0 0 0 1 1v1h-2.592c-.206-.581-.756-1-1.408-1H8a1.5 1.5 0 0 0 0 3h6a2 2 0 0 0 2-2v-1.183A2.992 2.992 0 0 0 18 12v-2a2.99 2.99 0 0 0-2-2.816" fill="current-color" fill-rule="evenodd"></path> </g></symbol>

    <symbol viewBox="0 0 24 24" id="dietas" xmlns="http://www.w3.org/2000/svg" fill="current-color"><g id="SVGRepo_bgCarrier" stroke-width="0"></g><g id="SVGRepo_tracerCarrier" stroke-linecap="round" stroke-linejoin="round"></g><g id="SVGRepo_iconCarrier"><defs >
  <style>
    .cls-1{stroke: currentColor; stroke-miterlimit:10; stroke-width:1.91px;}
  </style>
</defs><polyline class="cls-1" style="fill:none; stroke: currentColor; stroke-miterlimit:10; stroke-width:1.91px;" points="11.04 20.59 1.5 20.59 1.5 1.5 16.77 1.5 16.77 9.14"></polyline><line class="cls-1" style="fill:none; stroke:currentColor; stroke-miterlimit:10; stroke-width:1.91px;" x1="4.36" y1="5.32" x2="6.27" y2="5.32"></line><line class="cls-1" style="fill:none; stroke:currentColor; stroke-miterlimit:10; stroke-width:1.91px;" x1="8.18" y1="5.32" x2="13.91" y2="5.32"></line><line class="cls-1" style="fill:none; stroke:currentColor; stroke-miterlimit:10; stroke-width:1.91px;" x1="4.36" y1="9.14" x2="6.27" y2="9.14"></line><line class="cls-1" style="fill:none; stroke:currentColor; stroke-miterlimit:10; stroke-width:1.91px;" x1="8.18" y1="9.14" x2="13.91" y2="9.14"></line><line class="cls-1" style="fill:none; stroke:currentColor; stroke-miterlimit:10; stroke-width:1.91px;" x1="4.36" y1="12.95" x2="6.27" y2="12.95"></line><line class="cls-1" style="fill:none; stroke:currentColor; stroke-miterlimit:10; stroke-width:1.91px;" x1="8.18" y1="12.95" x2="13.91" y2="12.95"></line><ellipse class="cls-1" style="fill:none; stroke:currentColor; stroke-miterlimit:10; stroke-width:1.91px;" cx="17.73" cy="18.68" rx="4.77" ry="3.82"></ellipse><path class="cls-1" style="fill:none; stroke:currentColor; stroke-miterlimit:10; stroke-width:1.91px;" d="M20.11,11h1.43a0,0,0,0,1,0,0v1.43a2.39,2.39,0,0,1-2.39,2.39H17.73a0,0,0,0,1,0,0V13.43A2.39,2.39,0,0,1,20.11,11Z"></path><path class="cls-1" style="fill:none; stroke:currentColor; stroke-miterlimit:10; stroke-width:1.91px;" d="M14.86,11.05h0a2.86,2.86,0,0,1,2.87,2.86v.95"></path></g></symbol>


    <symbol id="rutinas" fill="current-color" version="1.1" xmlns="http://www.w3.org/2000/svg" xmlns:xlink="http://www.w3.org/1999/xlink" viewBox="0 0 45.174 45.174" xml:space="preserve"><g id="SVGRepo_bgCarrier" stroke-width="0"></g><g id="SVGRepo_tracerCarrier" stroke-linecap="round" stroke-linejoin="round"></g><g id="SVGRepo_iconCarrier"> <g> <path d="M41.573,15.879v-1.675c0-1.922-1.558-3.495-3.479-3.495h-2.761c-1.921,0-3.479,1.573-3.479,3.495v4.693H13.319v-4.693 c0-1.922-1.558-3.495-3.479-3.495H7.079c-1.921,0-3.479,1.573-3.479,3.495v1.675c-1.979,0-3.6,1.617-3.6,3.613v6.172 c0,1.996,1.71,3.613,3.6,3.613v1.674c0,1.922,1.558,3.513,3.479,3.513H9.84c1.921,0,3.479-1.591,3.479-3.513v-4.676h18.536v4.676 c0,1.922,1.558,3.513,3.479,3.513h2.762c1.92,0,3.479-1.591,3.479-3.513v-1.674c1.979,0,3.6-1.619,3.6-3.613v-6.172 C45.172,17.496,43.462,15.879,41.573,15.879z"></path> </g> </g></symbol>
    
    <symbol id="progreso" fill="current-color" xmlns="http://www.w3.org/2000/svg" viewBox="0 0 612 612" xml:space="preserve"><g stroke-width="0"/><g stroke-linecap="round" stroke-linejoin="round"/><path d="M144.236 70.83h104.389v474.233H144.236zm152.259 293.597h104.389v180.636H296.495zm148.96-150.06h104.389v330.695H445.455z"/><path d="M38.25 500.53h27.32c9.051 0 16.395-7.34 16.395-16.396 0-9.051-7.339-16.395-16.395-16.395H38.25v-73.22h27.32c9.051 0 16.395-7.34 16.395-16.396 0-9.051-7.339-16.395-16.395-16.395H38.25v-73.215h27.32c9.051 0 16.395-7.339 16.395-16.395 0-9.051-7.339-16.395-16.395-16.395H38.25v-73.22h27.32c9.051 0 16.395-7.339 16.395-16.395s-7.339-16.395-16.395-16.395H38.25V76.5h27.32c9.051 0 16.395-7.339 16.395-16.395S74.626 43.71 65.57 43.71H38.25V0H0v612h612v-38.25H38.25z"/></symbol>

    <symbol id="link" viewBox="0 0 24 24" fill="none" xmlns="http://www.w3.org/2000/svg"><g id="SVGRepo_bgCarrier" stroke-width="0"></g><g id="SVGRepo_tracerCarrier" stroke-linecap="round" stroke-linejoin="round"></g><g id="SVGRepo_iconCarrier"> <path d="M15.7285 3.88396C17.1629 2.44407 19.2609 2.41383 20.4224 3.57981C21.586 4.74798 21.5547 6.85922 20.1194 8.30009L17.6956 10.7333C17.4033 11.0268 17.4042 11.5017 17.6976 11.794C17.9911 12.0863 18.466 12.0854 18.7583 11.7919L21.1821 9.35869C23.0934 7.43998 23.3334 4.37665 21.4851 2.5212C19.6346 0.663551 16.5781 0.905664 14.6658 2.82536L9.81817 7.69182C7.90688 9.61053 7.66692 12.6739 9.51519 14.5293C9.80751 14.8228 10.2824 14.8237 10.5758 14.5314C10.8693 14.2391 10.8702 13.7642 10.5779 13.4707C9.41425 12.3026 9.44559 10.1913 10.8809 8.75042L15.7285 3.88396Z" fill="#4b4b4b"></path> <path d="M14.4851 9.47074C14.1928 9.17728 13.7179 9.17636 13.4244 9.46868C13.131 9.76101 13.1301 10.2359 13.4224 10.5293C14.586 11.6975 14.5547 13.8087 13.1194 15.2496L8.27178 20.1161C6.83745 21.556 4.73937 21.5863 3.57791 20.4203C2.41424 19.2521 2.44559 17.1408 3.88089 15.6999L6.30473 13.2667C6.59706 12.9732 6.59614 12.4984 6.30268 12.206C6.00922 11.9137 5.53434 11.9146 5.24202 12.2081L2.81818 14.6413C0.906876 16.5601 0.666916 19.6234 2.51519 21.4789C4.36567 23.3365 7.42221 23.0944 9.33449 21.1747L14.1821 16.3082C16.0934 14.3895 16.3334 11.3262 14.4851 9.47074Z" fill="#4b4b4b"></path> </g></symbol>

    <symbol id="modify" fill="current-color" viewBox="0 0 16 16" xmlns="http://www.w3.org/2000/svg"><g id="SVGRepo_bgCarrier" stroke-width="0"></g><g id="SVGRepo_tracerCarrier" stroke-linecap="round" stroke-linejoin="round"></g><g id="SVGRepo_iconCarrier"> <path d="M13 0L16 3L9 10H6V7L13 0Z" fill="#4b4b4b"></path> <path d="M1 1V15H15V9H13V13H3V3H7V1H1Z" fill="#4b4b4b"></path> </g></symbol>
    <symbol id="delete" fill="currentColor" xmlns="http://www.w3.org/2000/svg" viewBox="0 0 512 512" xml:space="preserve"><g stroke-width="0"/><g stroke-linecap="round" stroke-linejoin="round"/><path d="M439.114 69.747s2.977 2.1-43.339-11.966c-41.52-12.604-80.795-15.309-80.795-15.309l-2.722-19.297C310.387 9.857 299.484 0 286.642 0H225.34c-12.825 0-23.729 9.857-25.616 23.175l-2.722 19.297s-39.258 2.705-80.778 15.309C69.891 71.848 72.868 69.747 72.868 69.747c-10.324 2.849-17.536 12.655-17.536 23.864v16.695h401.337V93.611c0-11.209-7.213-21.015-17.555-23.864M88.593 464.731C90.957 491.486 113.367 512 140.234 512h231.524c26.857 0 49.276-20.514 51.64-47.269l25.642-327.21H62.952zm253.423-254.827c.51-8.402 7.731-14.807 16.134-14.296 8.402.51 14.798 7.731 14.296 16.134l-14.492 239.493c-.51 8.402-7.731 14.798-16.133 14.288-8.403-.51-14.806-7.722-14.296-16.125zm-101.265.919c0-8.42 6.821-15.241 15.24-15.241s15.24 6.821 15.24 15.241v239.492c0 8.42-6.821 15.24-15.24 15.24s-15.24-6.821-15.24-15.24zm-86.918-15.215c8.403-.51 15.624 5.894 16.134 14.296l14.509 239.492c.51 8.403-5.894 15.615-14.296 16.125-8.403.51-15.624-5.886-16.134-14.288L139.537 211.74c-.511-8.401 5.893-15.622 14.296-16.132"/></symbol>

    <symbol id="panel" viewBox="0 0 21 21" xmlns="http://www.w3.org/2000/svg" fill="#000000"><g id="SVGRepo_bgCarrier" stroke-width="0"></g><g id="SVGRepo_tracerCarrier" stroke-linecap="round" stroke-linejoin="round"></g><g id="SVGRepo_iconCarrier"> <g fill="none" fill-rule="evenodd" stroke="#4b4b4b" stroke-linecap="round" stroke-linejoin="round" transform="translate(3 3)"> <path d="m14.4978951 12.4978973-.0105089-9.99999996c-.0011648-1.10374784-.8962548-1.99789734-2-1.99789734h-9.99999995c-1.0543629 0-1.91816623.81587779-1.99451537 1.85073766l-.00548463.151365.0105133 10.00000004c.0011604 1.1037478.89625045 1.9978973 1.99999889 1.9978973h9.99999776c1.0543618 0 1.9181652-.8158778 1.9945143-1.8507377z"></path> <path d="m7.5.5v13.817"></path> <path d="m14.5 7.5h-14"></path> </g> </g></symbol>

    <symbol id="email" viewBox="0 0 24 24" xmlns="http://www.w3.org/2000/svg" fill="#000000"><g id="SVGRepo_bgCarrier" stroke-width="0"></g><g id="SVGRepo_tracerCarrier" stroke-linecap="round" stroke-linejoin="round"></g><g id="SVGRepo_iconCarrier"> <title></title> <g id="Complete"> <g id="mail"> <g> <polyline fill="none" points="4 8.2 12 14.1 20 8.2" stroke="#4b4b4b" stroke-linecap="round" stroke-linejoin="round" stroke-width="2"></polyline> <rect fill="none" height="14" rx="2" ry="2" stroke="#4b4b4b" stroke-linecap="round" stroke-linejoin="round" stroke-width="2" width="18" x="3" y="6.5"></rect> </g> </g> </g> </g></symbol>
    <symbol id="planes" viewBox="0 0 64 64" xmlns="http://www.w3.org/2000/svg" fill="#000000"><g id="SVGRepo_bgCarrier" stroke-width="0"></g><g id="SVGRepo_tracerCarrier" stroke-linecap="round" stroke-linejoin="round"></g><g id="SVGRepo_iconCarrier"><defs><style>.cls-1{fill:#4b4b4b;}</style></defs><title></title><path class="cls-1" d="M34,30H31a2,2,0,0,1,0-4h6a2,2,0,0,0,0-4H34V20a2,2,0,0,0-4,0v2.09A6,6,0,0,0,31,34h3a2,2,0,0,1,0,4H28a2,2,0,0,0,0,4h2v2a2,2,0,0,0,4,0V42a6,6,0,0,0,0-12Z"></path><path class="cls-1" d="M54.9,9H9.1A6.11,6.11,0,0,0,3,15.1V48.9A6.11,6.11,0,0,0,9.1,55H54.9A6.11,6.11,0,0,0,61,48.9V15.1A6.11,6.11,0,0,0,54.9,9ZM57,48.9A2.1,2.1,0,0,1,54.9,51H9.1A2.1,2.1,0,0,1,7,48.9V15.1A2.1,2.1,0,0,1,9.1,13H54.9A2.1,2.1,0,0,1,57,15.1Z"></path></g></symbol>
    <symbol id="username" fill="#4b4b4b" viewBox="0 0 24 24" xmlns="http://www.w3.org/2000/svg" stroke="#4b4b4b"><g id="SVGRepo_bgCarrier" stroke-width="0"></g><g id="SVGRepo_tracerCarrier" stroke-linecap="round" stroke-linejoin="round"></g><g id="SVGRepo_iconCarrier"><path d="M12,1a11,11,0,0,0,0,22,1,1,0,0,0,0-2,9,9,0,1,1,9-9v2.857a1.857,1.857,0,0,1-3.714,0V7.714a1,1,0,1,0-2,0v.179A5.234,5.234,0,0,0,12,6.714a5.286,5.286,0,1,0,3.465,9.245A3.847,3.847,0,0,0,23,14.857V12A11.013,11.013,0,0,0,12,1Zm0,14.286A3.286,3.286,0,1,1,15.286,12,3.29,3.29,0,0,1,12,15.286Z"></path></g></symbol>

    <symbol id="fire" fill="currentColor" viewBox="0 0 16 16" xmlns="http://www.w3.org/2000/svg"><g id="SVGRepo_bgCarrier" stroke-width="0"></g><g id="SVGRepo_tracerCarrier" stroke-linecap="round" stroke-linejoin="round"></g><g id="SVGRepo_iconCarrier"><path d="M9.32 15.653a.812.812 0 0 1-.086-.855c.176-.342.245-.733.2-1.118a2.106 2.106 0 0 0-.267-.779 2.027 2.027 0 0 0-.541-.606 3.96 3.96 0 0 1-1.481-2.282c-1.708 2.239-1.053 3.51-.235 4.63a.748.748 0 0 1-.014.901.87.87 0 0 1-.394.283.838.838 0 0 1-.478.023c-1.105-.27-2.145-.784-2.85-1.603a4.686 4.686 0 0 1-.906-1.555 4.811 4.811 0 0 1-.263-1.797s-.133-2.463 2.837-4.876c0 0 3.51-2.978 2.292-5.18a.621.621 0 0 1 .112-.653.558.558 0 0 1 .623-.147l.146.058a7.63 7.63 0 0 1 2.96 3.5c.58 1.413.576 3.06.184 4.527.325-.292.596-.641.801-1.033l.029-.064c.198-.477.821-.325 1.055-.013.086.137 2.292 3.343 1.107 6.048a5.516 5.516 0 0 1-1.84 2.027 6.127 6.127 0 0 1-2.138.893.834.834 0 0 1-.472-.038.867.867 0 0 1-.381-.29zM7.554 7.892a.422.422 0 0 1 .55.146c.04.059.066.126.075.198l.045.349c.02.511.014 1.045.213 1.536.206.504.526.95.932 1.298a3.06 3.06 0 0 1 1.16 1.422c.22.564.25 1.19.084 1.773a4.123 4.123 0 0 0 1.39-.757l.103-.084c.336-.277.613-.623.813-1.017.201-.393.322-.825.354-1.269.065-1.025-.284-2.054-.827-2.972-.248.36-.59.639-.985.804-.247.105-.509.17-.776.19a.792.792 0 0 1-.439-.1.832.832 0 0 1-.321-.328.825.825 0 0 1-.035-.729c.412-.972.54-2.05.365-3.097a5.874 5.874 0 0 0-1.642-3.16c-.156 2.205-2.417 4.258-2.881 4.7a3.537 3.537 0 0 1-.224.194c-2.426 1.965-2.26 3.755-2.26 3.834a3.678 3.678 0 0 0 .459 2.043c.365.645.89 1.177 1.52 1.54C4.5 12.808 4.5 10.89 7.183 8.14l.372-.25z"></path></g></symbol>

    <symbol id="weight" xmlns="http://www.w3.org/2000/svg" viewBox="0 0 512 512" xml:space="preserve"><g stroke-width="0"/><g stroke-linecap="round" stroke-linejoin="round"/><path d="m500.609 322.275-57.428-162.834c.135.008.279.025.406.025 39.538.677 49.422-20.58 54.566-27.94 7.118-10.171-7.91-20.343-15.816-13.558-7.906 6.775-29.264 21.011-70.386 2.024-37.077-17.117-102.081-46.894-140.031-52.593v-39c0-8.799-7.127-15.921-15.918-15.921-8.795 0-15.922 7.122-15.922 15.921v39c-37.95 5.699-102.953 35.476-140.031 52.593-41.121 18.987-62.48 4.751-70.386-2.024-7.906-6.784-22.935 3.388-15.816 13.558 5.145 7.36 15.028 28.617 54.566 27.94.132 0 .276-.017.402-.025L11.391 322.275H0c11.497 38.025 46.804 65.736 88.595 65.736 41.786 0 77.093-27.711 88.59-65.736h-11.386l-60.355-171.134c37.183-11.467 89.569-31.056 134.636-34.072v24.23h-8.507v267.748H218.37v23.858h-24.874c-23.354 0-22.663 32.969-22.663 32.969-19.233 0-28.85 15.101-28.85 33.648h228.033c0-18.546-9.616-33.648-28.845-33.648 0 0 .686-32.969-22.668-32.969h-24.874v-23.858h-13.203V141.3h-8.507v-24.23c45.072 3.015 97.457 22.604 134.64 34.072l-60.358 171.134h-11.387c11.496 38.025 46.804 65.736 88.59 65.736 41.79 0 77.098-27.711 88.594-65.736zm-359.366 0H35.948L88.595 173zm229.515 0L423.41 173l52.643 149.275z" style="fill:currentColor"/></symbol>

    <symbol id="bars" version="1.1" xmlns="http://www.w3.org/2000/svg" xmlns:xlink="http://www.w3.org/1999/xlink" viewBox="0 0 442 442" xml:space="preserve"><g id="SVGRepo_bgCarrier"></g><g id="SVGRepo_tracerCarrier" stroke-linecap="round" stroke-linejoin="round"></g><g id="SVGRepo_iconCarrier"> <g> <path d="M411.992,422H30.008c-5.522,0-10,4.477-10,10s4.478,10,10,10h381.984c5.522,0-4.,10477,10-10S417.515,422,411.992,422z"></path> <path d="M30.008,402.524h100.017c5.522,0,10-4.477,10-10V193.229c0-5.523-4.478-10-10-10H30.008c-5.522,0-10,4.477-10,10v199.295 C20.008,398.047,24.485,402.524,30.008,402.524z M40.008,203.229h80.017v179.295H40.008V203.229z"></path> <path d="M170.992,402.524h100.016c5.522,0,10-4.477,10-10v-290.91c0-5.523-4.478-10-10-10H170.992c-5.522,0-10,4.477-10,10v290.91 C160.992,398.047,165.47,402.524,170.992,402.524z M180.992,111.614h80.016v270.91h-80.016V111.614z"></path> <path d="M411.992,0H311.976c-5.522,0-10,4.477-10,10v382.524c0,5.523,4.478,10,10,10h100.017c5.522,0,10-4.477,10-10V10 C421.992,4.477,417.515,0,411.992,0z M401.992,382.524h-80.017V20h80.017V382.524z"></path> </g> </g></symbol>

    <symbol id="logout" viewBox="0 0 24 24" xmlns="http://www.w3.org/2000/svg"><g id="SVGRepo_bgCarrier" stroke-width="0"></g><g id="SVGRepo_tracerCarrier" stroke-linecap="round" stroke-linejoin="round"></g><g id="SVGRepo_iconCarrier"> <path d="M12.9999 2C10.2385 2 7.99991 4.23858 7.99991 7C7.99991 7.55228 8.44762 8 8.99991 8C9.55219 8 9.99991 7.55228 9.99991 7C9.99991 5.34315 11.3431 4 12.9999 4H16.9999C18.6568 4 19.9999 5.34315 19.9999 7V17C19.9999 18.6569 18.6568 20 16.9999 20H12.9999C11.3431 20 9.99991 18.6569 9.99991 17C9.99991 16.4477 9.55219 16 8.99991 16C8.44762 16 7.99991 16.4477 7.99991 17C7.99991 19.7614 10.2385 22 12.9999 22H16.9999C19.7613 22 21.9999 19.7614 21.9999 17V7C21.9999 4.23858 19.7613 2 16.9999 2H12.9999Z" fill="currentColor"></path> <path d="M13.9999 11C14.5522 11 14.9999 11.4477 14.9999 12C14.9999 12.5523 14.5522 13 13.9999 13V11Z" fill="currentColor"></path> <path d="M5.71783 11C5.80685 10.8902 5.89214 10.7837 5.97282 10.682C6.21831 10.3723 6.42615 10.1004 6.57291 9.90549C6.64636 9.80795 6.70468 9.72946 6.74495 9.67492L6.79152 9.61162L6.804 9.59454L6.80842 9.58848C6.80846 9.58842 6.80892 9.58778 5.99991 9L6.80842 9.58848C7.13304 9.14167 7.0345 8.51561 6.58769 8.19098C6.14091 7.86637 5.51558 7.9654 5.19094 8.41215L5.18812 8.41602L5.17788 8.43002L5.13612 8.48679C5.09918 8.53682 5.04456 8.61033 4.97516 8.7025C4.83623 8.88702 4.63874 9.14542 4.40567 9.43937C3.93443 10.0337 3.33759 10.7481 2.7928 11.2929L2.08569 12L2.7928 12.7071C3.33759 13.2519 3.93443 13.9663 4.40567 14.5606C4.63874 14.8546 4.83623 15.113 4.97516 15.2975C5.04456 15.3897 5.09918 15.4632 5.13612 15.5132L5.17788 15.57L5.18812 15.584L5.19045 15.5872C5.51509 16.0339 6.14091 16.1336 6.58769 15.809C7.0345 15.4844 7.13355 14.859 6.80892 14.4122L5.99991 15C6.80892 14.4122 6.80897 14.4123 6.80892 14.4122L6.804 14.4055L6.79152 14.3884L6.74495 14.3251C6.70468 14.2705 6.64636 14.1921 6.57291 14.0945C6.42615 13.8996 6.21831 13.6277 5.97282 13.318C5.89214 13.2163 5.80685 13.1098 5.71783 13H13.9999V11H5.71783Z" fill="currentColor"></path> </g></symbol>

    <symbol version="1.1" id="relojArena" xmlns="http://www.w3.org/2000/svg" xmlns:xlink="http://www.w3.org/1999/xlink" viewBox="0 0 32 32" xml:space="preserve"><g id="SVGRepo_bgCarrier" stroke-width="0  "></g><g id="SVGRepo_tracerCarrier" stroke-linecap="round" stroke-linejoin="round"></g><g id="SVGRepo_iconCarrier"> <style type="text/css"> .st0{fill:none;stroke:currentColor;stroke-width:2;stroke-linecap:round;stroke-linejoin:round;stroke-miterlimit:10;} </style> <path class="st0" d="M22,6H10C8.3,6,7,4.7,7,3v0h18v0C25,4.7,23.7,6,22,6z"></path> <path class="st0" d="M10,26h12c1.7,0,3,1.3,3,3v0H7v0C7,27.3,8.3,26,10,26z"></path> <path class="st0" d="M23,26v-4c0-0.6-0.3-1.2-0.8-1.6l-3.7-2.8c-1.1-0.8-1.1-2.4,0-3.2l3.7-2.8c0.5-0.4,0.8-1,0.8-1.6V6"></path> <path class="st0" d="M9,6v4c0,0.6,0.3,1.2,0.8,1.6l3.7,2.8c1.1,0.8,1.1,2.4,0,3.2l-3.7,2.8C9.3,20.8,9,21.4,9,22v4"></path> <polygon class="st0" points="11,26 16,21 21,26 "></polygon> <polygon class="st0" points="16,12 13,10 19,10 "></polygon> </g></symbol>
    
    <symbol id="stars" viewBox="0 0 24 24" fill="none" xmlns="http://www.w3.org/2000/svg" stroke="currentColor"><g id="SVGRepo_bgCarrier" stroke-width="0"></g><g id="SVGRepo_tracurrentColorerCarrier" stroke-linecurrentcap="round" stroke-linejoin="round"></g><g id="SVGRepo_icurrentColoronCarrier"> <path d="M5 16V20M6 4V8M7 18H3M8 6H4M13 4L14.7528 8.44437C14.9407 8.92083 15.0347 9.15906 15.1786 9.35994C15.3061 9.538 15.462 9.69391 15.6401 9.82143C15.8409 9.9653 16.0792 10.0593 16.5556 10.2472L21 12L16.5556 13.7528C16.0792 13.9407 15.8409 14.0347 15.6401 14.1786C15.462 14.3061 15.3061 14.462 15.1786 14.6401C15.0347 14.8409 14.9407 15.0792 14.7528 15.5556L13 20L11.2472 15.5556C11.0593 15.0792 10.9653 14.8409 10.8214 14.6401C10.6939 14.462 10.538 14.3061 10.3599 14.1786C10.1591 14.0347 9.92083 13.9407 9.44437 13.7528L5 12L9.44437 10.2472C9.92083 10.0593 10.1591 9.9653 10.3599 9.82143C10.538 9.69391 10.6939 9.538 10.8214 9.35994C10.9653 9.15906 11.0593 8.92083 11.2472 8.44437L13 4Z" stroke="currentColor" stroke-width="2" stroke-linecurrentcap="round" stroke-linejoin="round"></path> </g></symbol>
</svg>
